<?xml version="1.0" encoding="utf-8"?>
<!-- Generator: Adobe Illustrator 16.0.0, SVG Export Plug-In . SVG Version: 6.00 Build 0)  -->
<!DOCTYPE svg PUBLIC "-//W3C//DTD SVG 1.1//EN" "http://www.w3.org/Graphics/SVG/1.1/DTD/svg11.dtd">
<svg version="1.1" id="Layer_1" xmlns="http://www.w3.org/2000/svg" xmlns:xlink="http://www.w3.org/1999/xlink" x="0px" y="0px"
	 width="612px" height="792px" viewBox="0 0 612 792" enable-background="new 0 0 612 792" xml:space="preserve">
<rect x="229.095" y="406.37" fill="#FFFFFF" width="225.598" height="1.494"/>
<rect x="229.095" y="433.26" fill="#FFFFFF" width="225.598" height="1.497"/>
<g>
	<path fill="#FFFFFF" d="M195.555,299.398c5.677-2.988,11.953,0.297,14.94,5.679c0.6,2.687,1.793,5.374,0.297,8.065l-1.046,0.75
		c-6.722-0.149-13.746,0.297-20.318-0.304C190.028,308.663,190.475,302.386,195.555,299.398 M221.252,331.07
		c-2.841,2.843-6.126,5.081-9.86,5.979c-7.622,1.64-14.197-2.241-18.677-7.92c-1.943-3.586-3.733-7.47-3.287-11.654
		c10.906-0.896,22.86,0.301,33.618-1.045c-0.149-3.586-1.046-6.872-2.988-9.711c-5.677-8.518-15.089-12.551-25.25-10.908
		l-2.092-11.652l-1.492-0.449c-0.6,0.301-1.195,0.301-1.646,0.896l-40.037,0.599c-2.092,0.446-3.436-1.643-5.231-0.298
		c-1.195,7.021-2.69,13.744-2.839,20.765l1.344,0.148c4.333-6.422,7.771-17.029,17.631-16.431c1.046,0,2.241,1.193,2.241,2.241
		c0.446,15.985,0.749,31.223,0.6,47.36c-0.451,4.032-5.231,2.839-8.07,3.586c-0.148,0.744-0.446,1.943,0.149,2.539
		c9.562,0.446,18.376-0.747,27.788-0.446c1.046-0.149,0.6-1.197,0.749-1.944c-1.493-1.342-3.886-0.297-5.677-0.896
		c-1.645-0.297-2.542-1.944-2.988-3.438l-0.599-46.91c0.301-2.092,2.542-2.691,4.48-2.39c4.634,0.595,8.668,4.482,10.458,8.664
		c-2.539,1.792-5.378,3.586-7.47,6.277c-6.573,8.515-5.824,20.018-1.493,29.428c4.185,7.768,12.101,11.953,20.469,11.953
		c8.814-0.595,17.631-4.482,21.662-12.848C222.446,331.97,221.848,331.223,221.252,331.07"/>
	<path fill="#FFFFFF" d="M287.286,316.282c-1.79,2.539-5.229,2.39-8.366,2.241c-0.448-5.679-0.597-10.759-0.597-15.985
		c0.597-1.794,1.642-4.185,3.882-4.634c1.646,0,3.139,0.747,4.485,1.795C289.977,304.029,290.127,311.648,287.286,316.282
		 M245.752,314.788c-0.446,1.792-2.09,3.435-3.882,3.884c-1.942,0.744-3.588,0.297-5.679,0.446
		c-0.597-5.526-0.299-11.503-0.149-17.029c0.45-1.643,1.645-3.14,3.438-3.438c2.241-0.298,4.333,1.048,5.376,2.69
		C247.096,306.121,246.798,309.708,245.752,314.788 M344.358,295.663c-5.675,0.149-11.654-0.446-16.884,0.45
		c-0.747,2.39,2.096,1.345,2.843,2.39c1.64,0.896,3.285,2.687,2.688,4.631c-2.539,4.185-5.53,8.217-8.664,11.952
		c-2.843-3.438-4.786-7.321-7.174-11.056c-1.047-1.491-2.539-3.137-1.642-5.081c1.047-0.446,2.091-1.193,3.587-1.193
		c0.146-0.446,0.442-1.494-0.45-1.795c-7.622,0.45-15.687-0.148-23.306,0.598c0.149,3.587,4.932,0.75,6.573,3.289l13.597,20.169
		c0.149,6.274,0.595,12.848,0.298,17.929c-0.298,1.044-0.597,2.539-1.94,2.839c-4.187,1.342-7.474-1.646-10.458-4.485
		c-4.634-4.929-6.127-12.25-11.954-15.985c3.137-1.196,6.125-4.185,7.469-7.321c1.646-3.735,1.195-8.366-1.045-11.651
		c-9.262-8.815-24.052-3.438-36.305-4.634c0,0.453-0.148,1.197,0.149,1.646c0.897,0.595,2.393,0,3.439,0.446
		c1.79,0.899,2.24,2.839,2.24,4.634v35.854l-1.645,2.092c-1.493-0.148-2.839-1.044-3.882-2.39
		c-4.034-6.125-7.622-13.595-12.55-18.226c2.984-1.943,5.826-3.887,7.169-7.172c1.046-4.932,1.496-10.009-2.688-13.294
		c-9.711-6.277-23.011-2.393-34.812-3.292c0.149,0.602-0.148,1.349,0.149,1.795c1.195,0.149,2.393,0.149,3.439,0.446
		c1.493,0.75,1.939,2.096,2.241,3.59c0,12.997,0.744,24.05,0,37.053c-0.302,3.434-5.379,0.744-4.932,4.178
		c7.171,0.152,14.79,0.449,21.665-0.446c0.149-2.988-3.736-0.744-4.783-3.137c-1.195-5.828-0.747-12.699-0.297-18.676
		c1.046,0,2.241-0.152,3.137,0.149c5.228,6.872,8.517,14.792,13.147,22.11l28.983-0.298l2.39-0.446
		c0.152-2.839-4.185-0.896-4.929-3.738c-1.195-5.675-0.749-12.848-0.301-18.375c1.942-0.149,3.886,0.149,4.781,1.795l10.609,19.271
		l1.344,1.196c12.252-0.297,24.502-0.149,36.905-0.747c-0.152-0.449,0.146-1.048-0.152-1.345c-2.394-1.044-6.273,0.297-6.872-3.137
		l-0.301-19.872c5.084-6.574,9.566-13.592,15.542-19.571C341.82,297.309,346.153,298.502,344.358,295.663"/>
	<path fill="#FFFFFF" d="M437.584,329.729c0.449,5.526-0.298,12.848,0.75,17.182c4.631,0.896,9.265-0.152,14.19,0.148
		c0.595,1.94,0.151,4.932,0.304,6.571l-14.346,0.598l-0.602,1.197l0.453,33.917c0,2.241,1.193,4.482,3.435,5.377
		c5.229,1.792,9.116-1.943,12.997-4.482c1.646,4.181-1.792,6.274-4.482,8.069c-5.526,3.583-13.294,4.631-19.717,1.94
		c-2.694-1.346-5.232-4.182-5.682-7.322l-0.596-38.547c-2.089-1.045-4.779,0.75-6.425-0.896l0.301-3.583l18.824-20.169H437.584z"/>
	<path fill="#FFFFFF" d="M333.903,397.258c-2.542-0.599-4.333-3.286-4.782-5.676c-0.599-3.14,0.148-6.128,1.794-8.518
		c4.029-4.482,8.961-6.575,14.19-8.217l0.152,16.286C342.713,395.017,338.534,397.707,333.903,397.258 M210.494,423.254
		c-6.723,8.812-17.776,8.664-28.236,7.769c0.15-9.414-0.896-26.298-0.446-39.741c9.562-0.446,20.467-1.494,27.042,6.574
		C214.082,405.623,215.574,414.889,210.494,423.254 M207.358,356.171c3.287,5.828,3.733,14.792,1.046,21.065
		c-1.793,4.631-6.725,8.667-11.653,9.414c-4.783,0.298-10.161,0.298-14.94,0l-0.45-36.901
		C190.625,349.448,201.68,347.657,207.358,356.171 M418.466,395.764l-0.305-22.708c-1.49-7.322,2.545-19.125-5.526-24.206
		c-9.414-3.137-18.973,0.75-26.143,6.872c-0.598-3.137-0.301-4.482-0.896-7.619c-7.173,2.241-14.497,4.333-21.667,6.426
		c-1.795,3.438,1.94,3.286,3.738,4.181c1.64,0.75,2.539,2.542,2.836,4.185l-0.151,30.776c-1.343,2.241-4.029,2.691-6.568,2.691
		c-1.048-0.297-2.393-1.345-2.393-2.539l-0.149-33.169c0.149-5.229-1.646-10.458-6.426-12.848
		c-13.442-4.631-27.044,1.643-36.303,10.756c0.744-2.093,1.788-4.333,3.435-5.977c1.342-0.896,3.734-0.896,4.485-2.241
		c0-1.048,0.148-2.539-1.2-2.539l-20.313,0.446c-0.45,0.449-0.6,0.747-0.6,1.349c-0.149,2.984,3.733,1.788,5.376,2.836
		c2.243,1.044,2.542,3.586,3.289,5.53c-1.344,8.065-5.679,14.789-8.366,22.258l-1.195,1.048
		c-4.783-7.771-8.665-15.988-13.151-24.053l-0.297-2.69c0.897-4.036,8.068-0.45,6.126-5.828h-26.742l-5.978-1.791
		c-7.322-0.301-12.7,5.976-15.987,11.651c-1.195-2.688,0-6.872-1.046-9.562c-6.424,2.538-13.146,4.333-20.021,6.128
		c0.149,0.747-0.297,1.788,0.451,2.39c3.733,1.491,7.322,4.932,8.065,9.113l0.152,30.776c-1.496,2.988-5.381,2.542-7.92,2.542
		c-3.885-6.125-10.309-9.113-16.433-11.354c5.826-1.795,12.398-5.53,14.489-11.956c2.092-7.021,0.6-14.792-3.583-20.467
		c-5.978-7.024-15.238-8.815-24.057-10.309c-14.489-0.149-29.582-0.595-43.922,0.297c-0.448,1.048,0.148,2.244,0.148,2.988
		c3.435,0.149,6.573,0.453,9.264,2.241c0.597,1.646,1.641,3.14,1.492,5.229l0.6,66.636l-1.046,4.482
		c-1.795,3.884-5.978,4.182-9.711,4.628c0,1.051-0.149,2.092,0.148,2.843h50.199c8.962-0.298,17.479-2.539,23.009-9.86
		c4.032-6.128,3.733-14.643,1.345-21.663c8.515-0.747,16.133-0.747,24.947-0.747c1.646-0.149,0.749-2.241,0.749-3.137
		c-2.69-0.301-6.275,0.148-7.47-2.542l-0.298-32.271c0.595-1.792,1.79-3.587,3.286-4.78c5.077-4.333,8.216,3.88,13.147,4.178
		c2.542,0.152,4.932-0.443,6.424-2.836c1.046-2.39,1.645-5.526,0.897-8.217c1.793-0.595,3.583,1.646,4.778,2.988l19.723,40.785
		c-0.297,7.021-4.631,13.599-11.055,16.884c-3.289,1.646-7.619,0.747-10.756-0.446c-4.034-1.943-7.919-5.827-8.219-10.16
		c-0.747-3.583-0.598-7.619,1.944-10.307c1.79-1.196,4.031,0,5.824,0.595c2.99,0.747,6.723,0.599,8.665-1.94
		c1.795-2.39,1.795-6.277,0.749-8.964c-1.343-2.839-4.333-4.932-7.321-5.378c-4.183-0.301-8.665,1.193-10.756,5.229
		c-2.989,7.318-3.736,15.836-1.494,23.752c0.271,1.696,1.056,2.638,1.94,4.542c3.137,3.141,7.173,6.214,12.104,6.363
		c6.424,1.199,11.802-1.94,16.134-6.271c7.172-13.446,13.597-27.342,20.021-41.238l1.191-1.193
		c-0.146,2.092,0.749,3.884,2.245,5.378c1.492,0.747,2.987,1.643,4.932,1.197c2.839-0.598,5.526-1.944,7.021-4.634
		c3.434-4.033-1.045-10.458,2.69-14.491c2.688-3.735,6.868-6.274,11.648-5.378c1.199,0.149,1.943,1.345,2.393,2.39l0.152,16.283
		l-0.602,0.75c-6.122,2.39-12.25,4.928-18.223,7.619c-4.932,2.839-11.207,5.976-12.402,12.25c-0.148,3.735-0.297,7.021,3.136,10.012
		c6.123,4.929,16.585,3.735,23.007,0.298c2.248-1.197,4.185-2.988,6.578-4.033c0.893,1.494,1.342,3.134,2.687,4.482
		c1.94,1.643,4.334,1.94,7.173,1.791c11.651-1.791,24.801-0.148,36.753-1.494c0.146-1.044,0.599-1.646,0-2.687
		c-2.241-0.747-5.526,0.148-6.724-2.093c-0.297-11.651-0.297-23.756,0-35.11c3.138-3.735,7.769-6.425,12.551-4.783
		c1.94,0.899,3.587,2.539,4.334,4.333c1.639,11.056,0.747,23.306,0.747,34.812c-0.747,3.435-4.786,1.64-7.024,2.84
		c-0.152,0.743-0.595,2.39,0.298,2.687l26.446-0.148l1.044-0.598C426.233,395.017,419.51,399.499,418.466,395.764"/>
	<path fill="#FFFFFF" d="M233.697,427.829c0.461,0,1.159,0.02,2.086,0.05v-0.559c-0.511-0.007-0.866-0.03-1.069-0.076
		c-0.125-0.026-0.22-0.076-0.281-0.148c-0.044-0.047-0.064-0.116-0.064-0.188c0-0.176,0.078-0.453,0.236-0.833l0.891-2.119h4.768
		l1.013,2.522c0.078,0.191,0.114,0.35,0.114,0.469c0,0.079-0.023,0.143-0.068,0.195c-0.046,0.053-0.139,0.093-0.266,0.115
		c-0.132,0.033-0.509,0.05-1.12,0.063v0.559l2.652-0.05c0.339,0,0.939,0.02,1.798,0.05v-0.559c-0.433-0.007-0.714-0.04-0.84-0.103
		c-0.122-0.057-0.236-0.186-0.342-0.38c-0.187-0.338-0.565-1.177-1.137-2.516l-3.517-8.257h-0.539
		c-0.734,1.765-1.215,2.898-1.441,3.407l-2.058,4.645c-0.616,1.342-0.972,2.108-1.072,2.311c-0.17,0.36-0.299,0.582-0.39,0.664
		c-0.091,0.086-0.19,0.143-0.297,0.172c-0.106,0.033-0.375,0.05-0.81,0.057v0.559C232.577,427.849,233.164,427.829,233.697,427.829
		 M237.879,418.297l2.061,4.984h-4.173L237.879,418.297z"/>
	<path fill="#FFFFFF" d="M256.604,426.418l-0.322,0.767c-0.643,0.324-1.269,0.562-1.884,0.707c-0.617,0.146-1.288,0.222-2.011,0.222
		c-0.85,0-1.641-0.109-2.37-0.324c-0.73-0.211-1.367-0.516-1.916-0.912c-0.544-0.396-0.992-0.843-1.337-1.339
		c-0.346-0.489-0.608-1.024-0.792-1.603c-0.179-0.578-0.271-1.21-0.271-1.9c0-1.746,0.613-3.193,1.831-4.34
		c1.223-1.147,2.891-1.72,5.002-1.72c0.501,0,0.962,0.026,1.388,0.083c0.427,0.062,0.944,0.165,1.557,0.334
		c0.613,0.162,0.988,0.254,1.124,0.284c-0.119,0.301-0.207,0.599-0.268,0.889c-0.084,0.47-0.146,1.012-0.175,1.627h-0.516
		l-0.006-0.969c-0.058-0.539-0.352-0.936-0.893-1.203c-0.542-0.265-1.333-0.394-2.38-0.394c-0.778,0.01-1.443,0.109-1.983,0.298
		c-0.545,0.188-1.026,0.485-1.439,0.893c-0.417,0.409-0.753,0.925-1.018,1.55c-0.264,0.625-0.396,1.411-0.403,2.354
		c0,1.656,0.507,2.988,1.524,3.993c1.012,1.008,2.352,1.511,4.021,1.511c0.75,0,1.448-0.1,2.087-0.312
		c0.441-0.142,0.877-0.363,1.311-0.671L256.604,426.418z"/>
	<path fill="#FFFFFF" d="M268.896,426.418l-0.321,0.767c-0.643,0.324-1.269,0.562-1.886,0.707c-0.616,0.146-1.286,0.222-2.009,0.222
		c-0.85,0-1.643-0.109-2.37-0.324c-0.73-0.211-1.367-0.516-1.916-0.912c-0.545-0.396-0.992-0.843-1.337-1.339
		c-0.346-0.489-0.61-1.024-0.792-1.603c-0.181-0.578-0.271-1.21-0.271-1.9c0-1.746,0.608-3.193,1.832-4.34
		c1.221-1.147,2.89-1.72,5.002-1.72c0.501,0,0.96,0.026,1.387,0.083c0.426,0.062,0.945,0.165,1.559,0.334
		c0.611,0.162,0.983,0.254,1.122,0.284c-0.117,0.301-0.205,0.599-0.266,0.889c-0.086,0.47-0.146,1.012-0.177,1.627h-0.514
		l-0.006-0.969c-0.058-0.539-0.355-0.936-0.894-1.203c-0.542-0.265-1.334-0.394-2.38-0.394c-0.779,0.01-1.441,0.109-1.983,0.298
		c-0.545,0.188-1.025,0.485-1.438,0.893c-0.417,0.409-0.755,0.925-1.02,1.55c-0.263,0.625-0.395,1.411-0.402,2.354
		c0,1.656,0.508,2.988,1.522,3.993c1.013,1.008,2.354,1.511,4.021,1.511c0.752,0,1.449-0.1,2.089-0.312
		c0.439-0.142,0.876-0.363,1.309-0.671L268.896,426.418z"/>
	<path fill="#FFFFFF" d="M274.936,427.343v0.536c-1.165-0.033-1.934-0.047-2.299-0.047l-2.535,0.047v-0.536
		c0.643-0.017,1.033-0.043,1.175-0.086c0.139-0.046,0.236-0.112,0.291-0.194c0.064-0.109,0.104-0.374,0.122-0.797
		c0.007-0.115,0.023-0.893,0.046-2.334v-3.804c0-0.744-0.017-1.472-0.046-2.182c-0.018-0.522-0.055-0.83-0.116-0.926
		c-0.064-0.096-0.162-0.169-0.301-0.212c-0.139-0.046-0.529-0.079-1.171-0.089v-0.539c1.046,0.036,1.851,0.05,2.419,0.05
		c0.548,0,1.352-0.014,2.415-0.05v0.539c-0.648,0.01-1.04,0.043-1.179,0.089c-0.139,0.043-0.233,0.112-0.287,0.192
		c-0.064,0.108-0.106,0.373-0.123,0.796c-0.006,0.109-0.023,0.887-0.048,2.331v3.804c0,0.747,0.012,1.475,0.025,2.179
		c0.017,0.522,0.058,0.829,0.122,0.926c0.06,0.103,0.162,0.175,0.301,0.221C273.889,427.3,274.284,427.326,274.936,427.343"/>
	<path fill="#FFFFFF" d="M278.231,427.832c0.229,0,0.721,0.01,1.466,0.023c0.572,0.014,1.021,0.023,1.357,0.023
		c1.01,0,1.805-0.083,2.383-0.245c0.578-0.162,1.13-0.403,1.659-0.721c0.524-0.313,1.018-0.747,1.479-1.295
		c0.459-0.546,0.825-1.184,1.096-1.917c0.268-0.728,0.403-1.508,0.403-2.344c0-1.164-0.288-2.148-0.856-2.955
		c-0.572-0.811-1.266-1.385-2.085-1.726c-0.815-0.347-1.899-0.516-3.246-0.516c-0.45,0-1.079,0.007-1.896,0.023
		c-0.815,0.013-1.459,0.022-1.932,0.022c-0.617,0-1.324-0.01-2.122-0.022v0.535c0.572,0.007,0.95,0.046,1.134,0.126
		c0.074,0.029,0.132,0.079,0.172,0.155c0.054,0.108,0.096,0.39,0.116,0.846c0.03,0.724,0.046,1.355,0.046,1.888v3.354
		c0,0.437-0.02,1.224-0.056,2.351c-0.021,0.661-0.052,1.18-0.081,1.554c-0.213,0.148-0.481,0.311-0.797,0.492v0.394
		C277.311,427.846,277.9,427.832,278.231,427.832 M278.993,425.485l-0.023-2.564v-3.306l0.03-1.2
		c0.01-0.688,0.023-1.167,0.041-1.438c0.694-0.093,1.377-0.139,2.051-0.139c1.279,0,2.284,0.191,3.02,0.585
		c0.73,0.39,1.279,0.952,1.645,1.686c0.362,0.734,0.545,1.613,0.545,2.638c0,0.714-0.096,1.405-0.284,2.072
		c-0.19,0.668-0.458,1.217-0.81,1.646c-0.349,0.43-0.711,0.75-1.086,0.975c-0.377,0.219-0.826,0.387-1.354,0.51
		c-0.529,0.118-1.135,0.182-1.825,0.182c-0.667,0-1.304-0.05-1.902-0.139C279.013,426.378,278.996,425.879,278.993,425.485"/>
	<path fill="#FFFFFF" d="M289.672,427.879v-0.539c0.577-0.003,0.952-0.046,1.132-0.129c0.078-0.033,0.13-0.083,0.165-0.158
		c0.055-0.109,0.094-0.394,0.119-0.859c0.036-0.721,0.053-1.346,0.053-1.871v-4.198c0-0.74-0.013-1.468-0.043-2.182
		c-0.018-0.519-0.058-0.826-0.119-0.922c-0.062-0.096-0.162-0.165-0.301-0.212c-0.136-0.049-0.526-0.076-1.168-0.089v-0.535
		l2.345,0.046l2.486-0.04c1.192-0.02,2.054-0.029,2.591-0.029c0.545,0,1.06,0.029,1.541,0.096c-0.084,0.311-0.146,0.585-0.179,0.81
		c-0.01,0.053-0.061,0.618-0.145,1.709h-0.516c0.006-0.562-0.03-1.077-0.107-1.54c-0.304-0.129-0.637-0.215-1.002-0.258
		c-0.616-0.079-1.236-0.116-1.853-0.116c-0.132,0-0.43,0.011-0.886,0.033c-0.458,0.021-0.785,0.04-0.985,0.06
		c-0.025,0.611-0.045,1.19-0.055,1.726l-0.037,2.803c0.646,0.033,1.241,0.047,1.783,0.047c0.656,0,1.218-0.03,1.686-0.093
		c0.175-0.023,0.288-0.066,0.339-0.129c0.049-0.066,0.094-0.294,0.13-0.675l0.051-0.574h0.491v0.155l-0.048,1.705l0.048,1.907
		h-0.562l-0.023-0.559c-0.01-0.406-0.051-0.658-0.112-0.757c-0.064-0.1-0.185-0.165-0.362-0.205
		c-0.317-0.066-0.931-0.099-1.841-0.099c-0.372,0-0.9,0.013-1.58,0.046c-0.031,0.549-0.041,1.365-0.041,2.449
		c0,1.015,0.01,1.785,0.041,2.313c0.789,0.06,1.678,0.093,2.659,0.093c0.701,0,1.195-0.023,1.493-0.066
		c0.299-0.043,0.573-0.118,0.826-0.218c0.064-0.175,0.132-0.4,0.197-0.69c0.122-0.489,0.2-0.856,0.24-1.101h0.559
		c-0.139,1.101-0.21,2.009-0.21,2.733c-0.469,0.075-1.046,0.112-1.722,0.112l-4.918-0.047
		C291.762,427.832,291.041,427.846,289.672,427.879"/>
	<path fill="#FFFFFF" d="M300.22,427.879v-0.539c0.578-0.003,0.96-0.046,1.14-0.129c0.081-0.033,0.136-0.083,0.165-0.155
		c0.058-0.112,0.095-0.396,0.119-0.862c0.026-0.721,0.043-1.343,0.043-1.868v-6.687c0-0.182-0.01-0.298-0.033-0.351
		c-0.044-0.103-0.142-0.218-0.297-0.356c-0.099-0.086-0.21-0.143-0.342-0.166c-0.129-0.026-0.417-0.039-0.866-0.046v-0.535
		c0.95,0.029,1.55,0.043,1.796,0.043c0.417,0,0.83-0.014,1.24-0.043c0.459,0.604,0.798,1.058,1.015,1.349l1.679,2.092l2.451,2.991
		c0.781,0.956,1.411,1.702,1.887,2.251c0.303,0.36,0.556,0.645,0.763,0.854v-5.993c0-0.535-0.017-1.163-0.043-1.884
		c-0.025-0.453-0.059-0.734-0.109-0.843c-0.041-0.076-0.101-0.126-0.176-0.155c-0.183-0.08-0.564-0.119-1.142-0.126v-0.535
		c0.645,0.029,1.301,0.043,1.964,0.043c0.626,0,1.191-0.014,1.702-0.043v0.535c-0.568,0.007-0.944,0.046-1.124,0.126
		c-0.078,0.029-0.131,0.082-0.162,0.161c-0.058,0.106-0.094,0.394-0.115,0.863c-0.03,0.724-0.047,1.345-0.047,1.864v3.946
		c0,0.804,0.017,2.294,0.047,4.479l-0.85-0.242l-0.198-0.039c-0.035-0.01-0.064-0.026-0.093-0.047
		c-0.036-0.026-0.143-0.139-0.311-0.334c-0.455-0.519-0.789-0.915-1.002-1.18l-1.06-1.358l-5.825-7.05v6.376
		c0,0.538,0.016,1.18,0.048,1.917c0.02,0.459,0.058,0.74,0.107,0.846c0.041,0.083,0.099,0.136,0.177,0.165
		c0.182,0.083,0.562,0.123,1.14,0.126v0.539c-0.487-0.033-1.023-0.047-1.608-0.047C301.665,427.832,300.967,427.846,300.22,427.879"
		/>
	<path fill="#FFFFFF" d="M315.038,418.914h-0.539c-0.003-1.312-0.036-2.225-0.094-2.729c0.604,0.026,1.543,0.06,2.826,0.096
		c1.043,0.033,1.735,0.043,2.086,0.043c0.37,0,1.235-0.023,2.598-0.063c0.985-0.022,1.705-0.049,2.155-0.075
		c-0.069,0.614-0.119,1.523-0.139,2.729h-0.536l-0.065-0.789c-0.047-0.477-0.08-0.748-0.093-0.811
		c-0.014-0.069-0.04-0.112-0.069-0.142c-0.03-0.026-0.076-0.05-0.136-0.066c-0.079-0.017-0.351-0.036-0.826-0.062
		c-0.473-0.026-0.847-0.043-1.117-0.043h-1.012c-0.06,0.525-0.093,1.232-0.093,2.128v4.807c0,0.743,0.021,1.468,0.05,2.175
		c0.017,0.519,0.057,0.829,0.119,0.929c0.06,0.096,0.158,0.172,0.297,0.215c0.136,0.046,0.526,0.076,1.167,0.089v0.536
		c-0.981-0.033-1.719-0.047-2.214-0.047c-0.212,0-1.068,0.014-2.568,0.047v-0.536c0.654-0.013,1.049-0.043,1.191-0.089
		c0.142-0.043,0.237-0.109,0.287-0.191c0.071-0.109,0.116-0.374,0.133-0.797c0-0.115,0.015-0.893,0.044-2.33v-4.79
		c0-0.231,0-0.482-0.01-0.757l-0.034-1.388h-1.222c-0.707,0-1.263,0.026-1.679,0.082c-0.133,0.017-0.217,0.05-0.253,0.109
		c-0.062,0.089-0.116,0.39-0.164,0.893L315.038,418.914z"/>
	<path fill="#FFFFFF" d="M334.316,427.132c-0.476,0-0.935-0.129-1.371-0.384c-0.434-0.251-0.777-0.611-1.035-1.081
		c-0.258-0.473-0.387-0.945-0.387-1.428c0-0.485,0.109-0.912,0.324-1.279c0.215-0.37,0.568-0.733,1.061-1.094
		c0.344,0.611,0.668,1.134,0.966,1.57c0.297,0.433,0.631,0.866,0.991,1.299c0.265,0.32,0.767,0.876,1.501,1.669
		C335.691,426.887,335.011,427.132,334.316,427.132 M341.866,426.526c-0.271,0.159-0.463,0.255-0.571,0.295
		c-0.103,0.036-0.235,0.053-0.381,0.053c-0.972,0-1.956-0.36-2.955-1.081c0.489-0.502,0.84-0.981,1.058-1.432
		c0.219-0.459,0.331-0.936,0.331-1.438c0-0.225-0.04-0.463-0.105-0.717c0.812-0.017,1.593,0.039,2.343,0.161
		c0.037-0.356,0.1-0.74,0.195-1.144c-0.714,0-1.213,0.007-1.494,0.014c-1.008,0.043-1.683,0.06-2.029,0.06
		c-0.542,0-0.991-0.023-1.355-0.073l-0.535,0.78l0.076,0.109c0.79,0.01,1.232,0.026,1.332,0.056
		c0.158,0.033,0.277,0.119,0.356,0.265c0.126,0.229,0.186,0.552,0.186,0.962c0,0.704-0.288,1.368-0.863,2.003
		c-0.568-0.456-1.187-1.097-1.851-1.924c-0.664-0.826-1.187-1.612-1.576-2.366c0.846-0.572,1.457-1.147,1.831-1.716
		c0.377-0.571,0.568-1.114,0.568-1.63c0-0.488-0.133-0.869-0.4-1.144c-0.265-0.274-0.631-0.413-1.104-0.413
		c-0.278,0-0.536,0.053-0.764,0.166c-0.172,0.079-0.417,0.251-0.721,0.512c-0.513,0.437-0.8,0.691-0.859,0.771
		c-0.062,0.069-0.139,0.222-0.231,0.439c-0.129,0.304-0.191,0.625-0.191,0.948c0,0.665,0.158,1.392,0.485,2.182
		c-0.853,0.477-1.49,0.998-1.92,1.574c-0.434,0.581-0.642,1.252-0.642,2.022c0,0.528,0.126,1.055,0.384,1.583
		c0.261,0.529,0.647,0.945,1.156,1.253c0.516,0.304,1.145,0.453,1.885,0.453c0.602,0,1.144-0.083,1.626-0.258
		c0.479-0.176,1.071-0.516,1.771-1.028c0.608,0.499,1.21,0.856,1.805,1.078c0.334,0.142,0.751,0.208,1.25,0.208
		c0.191,0,0.39-0.014,0.585-0.043c0.367-0.301,0.604-0.499,0.721-0.589c0.076-0.062,0.317-0.234,0.721-0.525L341.866,426.526z
		 M333.318,418.558c0-0.347,0.047-0.625,0.139-0.837c0.09-0.208,0.222-0.363,0.391-0.462c0.172-0.097,0.36-0.143,0.568-0.143
		c0.228,0,0.437,0.103,0.614,0.308c0.183,0.208,0.271,0.466,0.271,0.78c0,0.356-0.129,0.747-0.396,1.173
		c-0.268,0.424-0.654,0.816-1.15,1.177C333.464,419.728,333.318,419.063,333.318,418.558"/>
	<path fill="#FFFFFF" d="M352.565,427.343v0.536c-1.163-0.033-1.934-0.047-2.297-0.047l-2.535,0.047v-0.536
		c0.645-0.017,1.031-0.043,1.174-0.086c0.139-0.046,0.237-0.112,0.29-0.194c0.069-0.109,0.109-0.374,0.123-0.797
		c0.01-0.115,0.022-0.893,0.049-2.334v-3.804c0-0.744-0.013-1.472-0.049-2.182c-0.014-0.522-0.054-0.83-0.116-0.926
		s-0.165-0.169-0.301-0.212c-0.139-0.046-0.525-0.079-1.17-0.089v-0.539c1.048,0.036,1.851,0.05,2.42,0.05
		c0.548,0,1.352-0.014,2.412-0.05v0.539c-0.645,0.01-1.037,0.043-1.173,0.089c-0.143,0.043-0.238,0.112-0.291,0.192
		c-0.066,0.108-0.109,0.373-0.122,0.796c-0.01,0.109-0.023,0.887-0.05,2.331v3.804c0,0.747,0.014,1.475,0.026,2.179
		c0.017,0.522,0.057,0.829,0.119,0.926c0.062,0.103,0.165,0.175,0.308,0.221C351.518,427.3,351.915,427.326,352.565,427.343"/>
	<path fill="#FFFFFF" d="M353.822,427.879v-0.539c0.578-0.003,0.962-0.046,1.14-0.129c0.083-0.033,0.136-0.083,0.172-0.155
		c0.053-0.112,0.09-0.396,0.112-0.862c0.026-0.721,0.047-1.343,0.047-1.868v-6.687c0-0.182-0.014-0.298-0.033-0.351
		c-0.046-0.103-0.146-0.218-0.298-0.356c-0.099-0.086-0.211-0.143-0.344-0.166c-0.129-0.026-0.416-0.039-0.865-0.046v-0.535
		c0.951,0.029,1.547,0.043,1.798,0.043c0.416,0,0.826-0.014,1.236-0.043c0.463,0.604,0.8,1.058,1.018,1.349l1.68,2.092l2.445,2.991
		c0.784,0.956,1.415,1.702,1.891,2.251c0.305,0.36,0.559,0.645,0.761,0.854v-5.993c0-0.535-0.014-1.163-0.043-1.884
		c-0.023-0.453-0.057-0.734-0.109-0.843c-0.039-0.076-0.099-0.126-0.175-0.155c-0.182-0.08-0.565-0.119-1.141-0.126v-0.535
		c0.647,0.029,1.303,0.043,1.964,0.043c0.628,0,1.189-0.014,1.702-0.043v0.535c-0.568,0.007-0.942,0.046-1.124,0.126
		c-0.076,0.029-0.129,0.082-0.162,0.161c-0.06,0.106-0.093,0.394-0.115,0.863c-0.03,0.724-0.047,1.345-0.047,1.864v3.946
		c0,0.804,0.017,2.294,0.047,4.479l-0.854-0.242l-0.194-0.039c-0.033-0.01-0.06-0.026-0.093-0.047
		c-0.036-0.026-0.139-0.139-0.311-0.334c-0.456-0.519-0.79-0.915-1.005-1.18l-1.058-1.358l-5.824-7.05v6.376
		c0,0.538,0.017,1.18,0.046,1.917c0.02,0.459,0.06,0.74,0.109,0.846c0.043,0.083,0.096,0.136,0.175,0.165
		c0.186,0.083,0.562,0.123,1.144,0.126v0.539c-0.489-0.033-1.024-0.047-1.606-0.047
		C355.267,427.832,354.572,427.846,353.822,427.879"/>
	<path fill="#FFFFFF" d="M367.52,431.035l0.029-0.565v-0.115c0-0.122-0.006-0.317-0.029-0.582l0.162-0.103
		c0.151,0.109,0.297,0.195,0.437,0.238c0.132,0.05,0.277,0.072,0.442,0.072c0.298,0,0.522-0.059,0.681-0.182
		c0.159-0.112,0.271-0.301,0.344-0.545c0.073-0.255,0.106-0.912,0.106-1.974v-7.163c0-0.746-0.014-1.477-0.047-2.191
		c-0.01-0.521-0.046-0.833-0.105-0.929c-0.066-0.096-0.165-0.165-0.311-0.215c-0.139-0.043-0.529-0.072-1.17-0.082v-0.516
		c0.865,0.029,1.679,0.046,2.433,0.046c0.803,0,1.612-0.017,2.445-0.046v0.516c-0.641,0.01-1.031,0.039-1.17,0.082
		c-0.146,0.05-0.237,0.112-0.284,0.195c-0.072,0.109-0.119,0.377-0.132,0.8c0,0.109-0.014,0.893-0.05,2.337v5.917
		c0,0.898-0.076,1.609-0.229,2.132c-0.151,0.522-0.409,1.015-0.776,1.484c-0.367,0.469-0.757,0.826-1.187,1.067
		s-0.84,0.363-1.243,0.363C367.758,431.078,367.642,431.062,367.52,431.035"/>
	<path fill="#FFFFFF" d="M373.915,416.72v-0.539c0.899,0.036,1.732,0.05,2.506,0.05c0.78,0,1.557-0.014,2.327-0.05v0.539
		c-0.638,0.01-1.031,0.043-1.17,0.089c-0.143,0.043-0.238,0.112-0.284,0.192c-0.073,0.108-0.113,0.376-0.133,0.796
		c-0.007,0.113-0.023,0.89-0.046,2.334v3.048c0,1.177,0.072,1.956,0.225,2.333c0.152,0.374,0.39,0.685,0.721,0.933
		c0.251,0.188,0.588,0.34,1.018,0.446c0.427,0.115,0.906,0.172,1.428,0.172c0.608,0,1.154-0.076,1.633-0.229
		c0.477-0.148,0.833-0.33,1.068-0.549c0.237-0.218,0.416-0.459,0.535-0.73c0.119-0.268,0.202-0.638,0.255-1.104
		c0.046-0.47,0.072-1.062,0.072-1.785v-2.535c0-0.744-0.013-1.471-0.046-2.185c-0.007-0.522-0.047-0.83-0.106-0.926
		c-0.065-0.096-0.168-0.169-0.307-0.212c-0.139-0.046-0.532-0.079-1.174-0.089v-0.539c0.902,0.036,1.563,0.05,1.977,0.05
		c0.377,0,1.055-0.014,2.04-0.05v0.539c-0.651,0.01-1.055,0.043-1.193,0.089c-0.139,0.043-0.235,0.112-0.291,0.192
		c-0.069,0.108-0.109,0.373-0.126,0.796c0,0.113-0.007,0.887-0.026,2.334v2.754c0,1.354-0.093,2.297-0.284,2.836
		c-0.188,0.535-0.532,1.011-1.038,1.421c-0.377,0.308-0.862,0.546-1.457,0.718c-0.599,0.168-1.257,0.254-1.977,0.254
		c-0.847,0-1.577-0.103-2.198-0.301c-0.618-0.201-1.091-0.463-1.412-0.79c-0.323-0.327-0.545-0.657-0.671-0.998
		c-0.151-0.449-0.228-1.2-0.228-2.261v-3.633c0-0.744-0.014-1.475-0.05-2.185c-0.014-0.522-0.053-0.83-0.112-0.926
		s-0.165-0.169-0.304-0.212C374.946,416.763,374.563,416.729,373.915,416.72"/>
	<path fill="#FFFFFF" d="M387.487,416.72v-0.539c0.212,0.004,0.542,0.01,0.979,0.021l1.576,0.029c0.314,0,0.8-0.01,1.458-0.029
		c0.853-0.027,1.349-0.043,1.487-0.043c1.045,0,1.805,0.096,2.287,0.28c0.477,0.188,0.847,0.493,1.111,0.912
		c0.261,0.417,0.393,0.876,0.393,1.365c0,0.467-0.122,0.923-0.366,1.375c-0.245,0.456-0.602,0.837-1.068,1.138
		c-0.466,0.301-1.074,0.535-1.821,0.7c0.14,0.195,0.457,0.622,0.969,1.282l2.053,2.737c0.595,0.761,0.942,1.184,1.038,1.272
		c0.05,0.036,0.099,0.062,0.146,0.079c0.086,0.026,0.265,0.043,0.549,0.043v0.536c-0.417-0.033-0.783-0.047-1.095-0.047
		c-0.32,0-0.717,0.014-1.193,0.047c-0.354-0.413-0.945-1.217-1.784-2.413c-0.463-0.664-0.873-1.22-1.227-1.669
		c-0.572-0.734-1.117-1.402-1.636-2l0.082-0.248c0.281,0.02,0.493,0.026,0.645,0.026c0.985,0,1.732-0.234,2.241-0.707
		c0.513-0.473,0.767-1.095,0.767-1.871c0-0.675-0.218-1.21-0.661-1.609c-0.436-0.4-1.104-0.596-1.993-0.596
		c-0.559,0-1.107,0.083-1.643,0.258c-0.02,0.295-0.043,0.572-0.053,0.827c-0.007,0.079-0.026,0.879-0.066,2.393v3.656
		c0,0.747,0.021,1.474,0.05,2.182c0.01,0.525,0.05,0.832,0.109,0.929c0.062,0.099,0.165,0.172,0.308,0.218
		c0.142,0.046,0.531,0.072,1.17,0.089v0.536c-0.777-0.033-1.491-0.047-2.148-0.047c-0.525,0-1.412,0.014-2.661,0.047v-0.536
		c0.642-0.017,1.031-0.043,1.177-0.086c0.139-0.046,0.234-0.112,0.291-0.194c0.065-0.109,0.105-0.374,0.119-0.797
		c0.013-0.115,0.026-0.893,0.046-2.334v-3.804c0-0.744-0.014-1.472-0.046-2.182c-0.014-0.522-0.054-0.83-0.112-0.926
		c-0.063-0.096-0.166-0.169-0.305-0.212C388.519,416.763,388.129,416.729,387.487,416.72"/>
	<path fill="#FFFFFF" d="M398.289,416.932v-0.539l1.977-0.374c0.219,0.08,0.364,0.149,0.45,0.222
		c0.079,0.066,0.254,0.277,0.516,0.628c0.39,0.522,0.846,1.236,1.361,2.142c0.513,0.903,1.062,1.938,1.643,3.098
		c0.585-0.896,1.187-1.871,1.802-2.922l1.762-3.005h1.227v0.225c-0.301,0.334-0.856,1.062-1.663,2.182
		c-0.466,0.648-1.074,1.594-1.821,2.823c-0.466,0.764-0.73,1.232-0.793,1.404c-0.06,0.176-0.086,0.338-0.086,0.493v0.628
		c0,0.747,0.014,1.474,0.046,2.175c0.014,0.519,0.054,0.829,0.116,0.926c0.062,0.103,0.162,0.175,0.301,0.221
		c0.136,0.047,0.525,0.073,1.17,0.083v0.539c-0.893-0.033-1.662-0.047-2.317-0.047c-0.624,0-1.444,0.014-2.469,0.047v-0.539
		c0.638-0.01,1.031-0.036,1.17-0.083c0.146-0.046,0.238-0.112,0.288-0.198c0.069-0.105,0.112-0.37,0.132-0.79
		c0.007-0.118,0.023-0.892,0.046-2.333v-0.962c-0.115-0.241-0.234-0.463-0.337-0.661c-0.082-0.136-0.36-0.611-0.846-1.411
		l-0.542-0.89c-0.43-0.697-0.751-1.193-0.959-1.49c-0.4-0.568-0.733-0.976-0.998-1.224c-0.143-0.136-0.291-0.228-0.446-0.287
		C398.861,416.958,398.616,416.932,398.289,416.932"/>
	<path fill="#FFFFFF" d="M414.995,427.879v-0.417c0.33-0.158,0.535-0.287,0.631-0.38c0.057-0.05,0.093-0.109,0.112-0.188
		c0.05-0.152,0.076-0.482,0.096-0.988c0.03-0.75,0.047-1.196,0.047-1.339v-4.429c0-0.747-0.017-1.475-0.047-2.191
		c-0.02-0.52-0.056-0.827-0.115-0.926c-0.062-0.096-0.169-0.165-0.301-0.212c-0.139-0.049-0.529-0.076-1.17-0.089v-0.535
		c1.338,0.029,2.168,0.043,2.485,0.043c0.351,0,1.137-0.014,2.36-0.043v0.535c-0.651,0.013-1.045,0.04-1.19,0.089
		c-0.139,0.047-0.238,0.109-0.291,0.192c-0.062,0.112-0.105,0.376-0.119,0.8c-0.006,0.109-0.026,0.889-0.049,2.34v5.533
		c0,0.582,0.017,1.051,0.049,1.408c0.625,0.036,1.24,0.05,1.858,0.05c1.547,0,2.628-0.103,3.245-0.301
		c0.073-0.169,0.133-0.357,0.192-0.568l0.327-1.372h0.562c-0.122,0.816-0.234,1.769-0.354,2.872c-0.222,0.05-0.403,0.079-0.532,0.09
		c-0.287,0.017-0.724,0.026-1.318,0.026l-4.876-0.047C416.072,427.832,415.537,427.846,414.995,427.879"/>
	<path fill="#FFFFFF" d="M426.616,427.829c0.463,0,1.157,0.02,2.086,0.05v-0.559c-0.513-0.007-0.866-0.03-1.067-0.076
		c-0.126-0.026-0.222-0.076-0.284-0.148c-0.04-0.047-0.066-0.116-0.066-0.188c0-0.176,0.079-0.453,0.241-0.833l0.89-2.119h4.766
		l1.015,2.522c0.08,0.191,0.116,0.35,0.116,0.469c0,0.079-0.023,0.143-0.073,0.195c-0.043,0.053-0.132,0.093-0.264,0.115
		c-0.133,0.033-0.506,0.05-1.117,0.063v0.559l2.65-0.05c0.337,0,0.938,0.02,1.795,0.05v-0.559c-0.433-0.007-0.714-0.04-0.836-0.103
		c-0.119-0.057-0.238-0.186-0.341-0.38c-0.188-0.338-0.565-1.177-1.137-2.516l-3.521-8.257h-0.535
		c-0.734,1.765-1.217,2.898-1.441,3.407l-2.062,4.645c-0.615,1.342-0.972,2.108-1.071,2.311c-0.165,0.36-0.297,0.582-0.39,0.664
		c-0.093,0.086-0.191,0.143-0.294,0.172c-0.109,0.033-0.381,0.05-0.811,0.057v0.559
		C425.499,427.849,426.081,427.829,426.616,427.829 M430.795,418.297l2.062,4.984h-4.172L430.795,418.297z"/>
	<path fill="#FFFFFF" d="M440.69,427.971l-0.747-3.434l-1.59-6.776c-0.115-0.476-0.228-0.76-0.33-0.853s-0.446-0.165-1.021-0.234
		v-0.489c0.922,0.029,1.62,0.046,2.089,0.046c0.43,0,1.138-0.017,2.143-0.046v0.489c-0.721,0.026-1.138,0.072-1.24,0.122
		c-0.076,0.039-0.108,0.119-0.108,0.231c0,0.142,0.032,0.387,0.099,0.733c0.182,0.981,0.301,1.606,0.363,1.868l1.289,5.721
		l2.03-5.07c0.528-1.332,1.058-2.733,1.569-4.214h0.539c0.503,1.563,0.952,2.898,1.349,4.016l1.921,5.382l1.411-4.932
		c0.244-0.883,0.476-1.795,0.688-2.747c0.099-0.434,0.146-0.681,0.146-0.747c0-0.116-0.047-0.202-0.143-0.251
		c-0.096-0.054-0.532-0.093-1.306-0.112v-0.489c0.84,0.029,1.422,0.046,1.752,0.046c0.337,0,0.919-0.017,1.752-0.046v0.489
		c-0.377,0.006-0.628,0.046-0.754,0.115c-0.129,0.072-0.231,0.198-0.313,0.387c-0.083,0.186-0.314,0.912-0.691,2.172l-0.843,2.776
		c-0.082,0.274-0.258,0.899-0.519,1.871l-1.058,3.976h-0.843c-0.605-1.82-1.068-3.186-1.405-4.102l-1.857-5.104l-1.643,4.086
		l-1.028,2.703c-0.142,0.374-0.268,0.701-0.37,0.988c-0.099,0.291-0.258,0.768-0.489,1.428H440.69z"/>
	<path fill="#FFFFFF" d="M460.391,334.088h0.599c0.681,0,1.256-0.248,1.256-0.883c0-0.453-0.327-0.912-1.256-0.912
		c-0.268,0-0.453,0.023-0.599,0.046V334.088z M460.391,336.954h-0.826v-5.173c0.434-0.063,0.85-0.123,1.468-0.123
		c0.78,0,1.296,0.166,1.606,0.394c0.308,0.225,0.473,0.575,0.473,1.067c0,0.681-0.453,1.094-1.012,1.259v0.04
		c0.456,0.083,0.764,0.496,0.866,1.256c0.126,0.807,0.248,1.114,0.327,1.279h-0.859c-0.126-0.166-0.251-0.638-0.354-1.319
		c-0.122-0.661-0.453-0.906-1.114-0.906h-0.575V336.954z M461.257,330.337c-2.043,0-3.709,1.755-3.709,3.917
		c0,2.208,1.666,3.937,3.729,3.937c2.057,0.02,3.709-1.729,3.709-3.917c0-2.182-1.652-3.937-3.709-3.937H461.257z M461.276,329.616
		c2.536,0,4.556,2.062,4.556,4.637c0,2.618-2.02,4.657-4.575,4.657c-2.535,0-4.595-2.04-4.595-4.657c0-2.575,2.06-4.637,4.595-4.637
		H461.276z"/>
</g>
</svg>
